<svg xmlns="http://www.w3.org/2000/svg" xmlns:xlink="http://www.w3.org/1999/xlink" fill="none" version="1.1" width="40" height="40" viewBox="0 0 40 40"><defs><clipPath id="master_svg0_826_395266"><rect x="0" y="0" width="40" height="40" rx="0"/></clipPath></defs><g clip-path="url(#master_svg0_826_395266)"><g><path d="M17.6289974375,5.718431681988525L17.6289974375,5.715844381988525C17.629433437499998,5.088614781988525,17.8784824375,4.487083981988525,18.321872437499998,4.0432692719885255C18.7657494375,3.598844201988525,19.3681234375,3.3489815592785255,19.9962504375,3.3486313819885254C20.6243744375,3.3482943177185254,21.2269994375,3.5974941819885253,21.6713754375,4.041444121988525C22.1158734375,4.485381581988525,22.3657494375,5.087681681988525,22.3659994375,5.715844381988525C22.3659994375,6.344018981988525,22.1165004375,6.946456681988526,21.6723724375,7.390631681988525C21.2281244375,7.834818881988525,20.6257514375,8.084356281988526,19.9974974375,8.084356281988526C19.3693744375,8.084356281988526,18.7669984375,7.834818881988525,18.3227474375,7.390631681988525C17.8792344375,6.947066581988525,17.6296834375,6.345672881988525,17.6289974375,5.718431681988525ZM3.452160656452,20.895519381988525C3.4500607848,22.625019381988526,3.7193107575,24.344271381988527,4.2501106875,25.990393381988525L4.2501106875,25.987768381988527C4.3271481375,26.225895381988526,4.4777608375,26.433519381988525,4.6802481375,26.580645381988525C4.8827355375,26.727642381988524,5.1266729375,26.806770381988525,5.3769605375000005,26.806395381988526C5.5633604375,26.806395381988526,5.7471232375,26.762270381988525,5.9131977375,26.677645381988526C6.0792856375,26.593021381988525,6.2229983375,26.470270381988524,6.3325855375,26.319519381988524C6.4421730375,26.168644381988525,6.5145354375,25.994143381988525,6.5437481375,25.810021381988527C6.572973037500001,25.625895381988524,6.5582232375,25.437519381988526,6.5007107375,25.260143381988524C6.0458481375,23.850020381988525,5.8149855375,22.377270381988524,5.816535937499999,20.895519381988525C5.8164856375,17.893893381988526,6.7682979375,14.969520381988525,8.5351357375,12.542894881988525C10.301961437500001,10.116307281988526,12.7927475375,8.312519981988526,15.6494974375,7.390870081988526C15.9478734375,7.2948693819885255,16.195873437499998,7.084257081988525,16.3389994375,6.805382481988525C16.4819984375,6.526507381988525,16.5084974375,6.2022072819885254,16.4124984375,5.903832481988525C16.3164964375,5.605457281988525,16.1058734375,5.3574323819885254,15.8269974375,5.214332381988525C15.5481234375,5.071232281988525,15.2238724375,5.044782181988525,14.9254994375,5.140794481988525C11.5924101375,6.215581881988525,8.686098537500001,8.319756981988526,6.624485937499999,11.150682881988526C4.5628607375,13.981645381988525,3.452185690403,17.393395381988526,3.452160656452,20.895519381988525ZM33.8237474375,26.613018381988525C33.9413704375,26.714396381988525,34.0777474375,26.791521381988524,34.225120437499996,26.840019381988526L34.225120437499996,26.838019381988527C34.5229984375,26.936146381988525,34.8476204375,26.912144381988526,35.1277464375,26.771019381988527C35.4078714375,26.629894381988525,35.6203694375,26.383396381988526,35.7187464375,26.085520381988527C36.2706224375,24.410894381988527,36.5509984375,22.658770381988525,36.5492474375,20.895519381988525C36.5481224375,17.403144381988525,35.4424954375,14.000520381988526,33.3903714375,11.174519981988524C31.3383694375,8.348544581988525,28.4451194375,6.244007381988526,25.1244964375,5.161994681988525C24.8264964375,5.0651323819885254,24.5023724375,5.0905072819885255,24.2229974375,5.232569581988526C23.9437484375,5.374631881988526,23.7323724375,5.621731781988526,23.6351224375,5.919607181988525C23.5383724375,6.217781981988526,23.5639974375,6.542194581988525,23.7063714375,6.821494781988525C23.8487474375,7.100794981988525,24.0961204375,7.312119681988525,24.3943714375,7.408969381988525C27.2407474375,8.337457181988526,29.7206214375,10.142406981988525,31.4791204375,12.565644781988526C33.2376194375,14.988771381988526,34.1847434375,17.906143381988525,34.1848714375,20.900145381988526C34.1864964375,22.411144381988525,33.9462474375,23.912518381988527,33.4732474375,25.347519381988526C33.4244954375,25.494896381988525,33.4053704375,25.650519381988527,33.416872437500004,25.805269381988527C33.428245437499996,25.960018381988526,33.4701214375,26.111019381988527,33.5398714375,26.249645381988525C33.6097484375,26.388270381988526,33.7062454375,26.511768381988524,33.8237474375,26.613018381988525ZM20.0026224375,32.69189538198853C26.5191214375,32.69189538198853,31.8017484375,27.409269381988526,31.8017484375,20.892769381988526C31.8017484375,14.376270381988526,26.5191214375,9.093657481988526,20.0026224375,9.093657481988526C13.4861234375,9.093657481988526,8.203535537499999,14.376270381988526,8.203535537499999,20.892769381988526C8.203535537499999,27.409269381988526,13.4861234375,32.69189538198853,20.0026224375,32.69189538198853ZM19.297275437499998,14.193358381988526L23.3109244375,14.193358381988526C23.8932194375,14.193358381988526,24.2534024375,14.828014381988526,23.9548224375,15.327931381988526L21.0298274375,20.225288381988527L22.7750964375,20.225288381988527C23.2020834375,20.225288381988527,23.4326054375,20.725964381988526,23.1549854375,21.050379381988524L17.530226437499998,27.623247381988527C17.1865064375,28.024904381988524,16.5358654375,27.687895381988525,16.665636437499998,27.175417381988524L18.0353454375,21.766310381988525L16.1129864375,21.766310381988525C15.7578284375,21.766310381988525,15.5158984375,21.406391381988524,15.6499964375,21.077524381988525L18.139801437499997,14.971392381988526C18.3316434375,14.500908381988525,18.7891824375,14.193358381988526,19.297275437499998,14.193358381988526ZM4.9208984375,29.505867381988526C4.9208608375,29.194868381988524,4.9820984374999995,28.886870381988526,5.1011107375,28.599369381988524C5.2201233375000005,28.311995381988524,5.3945735374999995,28.050869381988527,5.6145231375,27.830868381988527C5.834460737500001,27.610994381988526,6.095573137500001,27.436493381988527,6.3829486375,27.317371381988526C6.6703360375,27.198368381988526,6.9783482375000006,27.137119381988526,7.2894106375,27.137119381988526C7.6004734375,27.137119381988526,7.9084859375,27.198368381988526,8.195873237499999,27.317371381988526C8.4832487375,27.436493381988527,8.7443604375,27.610994381988526,8.9642982375,27.830868381988527C9.184248437499999,28.050869381988527,9.3586988375,28.311995381988524,9.4777112375,28.599369381988524C9.5967230375,28.886870381988526,9.6579609375,29.194868381988524,9.657923737499999,29.505867381988526C9.6578359375,30.133993381988525,9.4082737375,30.736368381988527,8.964098937500001,31.180494381988524C8.519923237499999,31.624619381988527,7.9175233375,31.874119381988525,7.2894106375,31.874119381988525C6.6612980375,31.874119381988525,6.0588984375,31.624619381988527,5.6147234375,31.180494381988524C5.1705483375,30.736368381988527,4.9209857375,30.133993381988525,4.9208984375,29.505867381988526ZM30.1787494375,29.509369381988524C30.1787494375,28.881119381988526,30.4282494375,28.278746381988526,30.8725014375,27.834494381988524C31.3166254375,27.390370381988525,31.9191264375,27.140869381988526,32.5472484375,27.140869381988526C33.1753734375,27.140869381988526,33.7778754375,27.390370381988525,34.2220004375,27.834494381988524C34.6662484375,28.278746381988526,34.9157484375,28.881119381988526,34.9157484375,29.509369381988524C34.9157484375,30.137495381988526,34.6662484375,30.739868381988526,34.2220004375,31.184116381988524C33.7778754375,31.628244381988527,33.1753734375,31.877869381988525,32.5472484375,31.877869381988525C31.9191264375,31.877869381988525,31.3166254375,31.628244381988527,30.8725014375,31.184116381988524C30.4282494375,30.739868381988526,30.1787494375,30.137495381988526,30.1787494375,29.509369381988524ZM9.9097108375,34.01126938198853C12.8002481375,36.24177038198852,16.349622437500003,37.449144381988525,20.0007474375,37.44401838198853L20.0264964375,37.44401838198853C23.7217464375,37.44364738198853,27.3097434375,36.20152138198853,30.2142464375,33.917145381988526C30.3364944375,33.821268381988524,30.4386214375,33.702147381988524,30.5148694375,33.56676938198852C30.5911214375,33.43139538198852,30.6398714375,33.28226938198853,30.6584964375,33.12801938198852C30.6867464375,32.89576938198853,30.6453724375,32.66039538198852,30.5397474375,32.45164538198853C30.4341204375,32.24289338198852,30.2688694375,32.070269381988524,30.0648704375,31.955645381988525C29.8609984375,31.841021381988526,29.6276224375,31.789394381988526,29.3943694375,31.807518381988526C29.1612454375,31.825646381988527,28.9386194375,31.912645381988526,28.7548734375,32.057520381988525C26.2597444375,34.02076938198853,23.1756234375,35.085646381988525,20.0007474375,35.08014538198853C16.8713734375,35.08551838198852,13.8289964375,34.051022381988524,11.3514976375,32.13914538198853C11.2292103375,32.038019381988526,11.0877852375,31.962395381988525,10.9356727375,31.917021381988526C10.783547837499999,31.871645381988525,10.6238474375,31.857395381988525,10.4660859375,31.875019381988526C10.3083353375,31.892643381988524,10.1557483375,31.941895381988527,10.017435537499999,32.019896381988524C9.879122737500001,32.09776938198853,9.7579231375,32.20276838198853,9.6610603375,32.32852238198852C9.564198037499999,32.45427138198853,9.4936609375,32.59826938198853,9.4536481375,32.75189438198852C9.4136357375,32.90552138198852,9.4049735375,33.065645381988524,9.4281859375,33.222643381988526C9.4513855375,33.37964338198853,9.5059857375,33.53052138198852,9.5887103375,33.665896381988524C9.671435837499999,33.80139438198853,9.7806110375,33.91889438198852,9.9097108375,34.01126938198853Z" fill-rule="evenodd" fill="#006CE6" fill-opacity="1"/></g></g></svg>