<svg xmlns="http://www.w3.org/2000/svg" xmlns:xlink="http://www.w3.org/1999/xlink" viewBox="0 0 28.65 25.39"><defs><style>.cls-1{fill:url(#radial-gradient);}.cls-2{fill:url(#radial-gradient-2);}.cls-3{fill:url(#radial-gradient-3);}</style><radialGradient id="radial-gradient" cx="4666.24" cy="-1007.13" r="12.43" gradientTransform="translate(-3388.35 692.35) scale(0.73 0.67)" gradientUnits="userSpaceOnUse"><stop offset="0" stop-color="#b5ffff"/><stop offset="1" stop-color="#0a96ff"/></radialGradient><radialGradient id="radial-gradient-2" cx="4681.26" cy="-1022.95" r="9.7" xlink:href="#radial-gradient"/><radialGradient id="radial-gradient-3" cx="4654.84" cy="-1021.29" r="7.98" xlink:href="#radial-gradient"/></defs><g id="图层_2" data-name="图层 2"><g id="Layer_1" data-name="Layer 1"><path class="cls-1" d="M19.54,20c0,3-3.06,5.38-6.4,5.38S6.68,22.87,6.72,20s3.7-7,6.53-11.42C15.85,13.06,19.54,17,19.54,20Z"/><path class="cls-2" d="M28.65,8.94c0,2.37-2.39,4.21-5,4.21s-5-2-5-4.23S21.53,3.47,23.73,0C25.76,3.52,28.65,6.58,28.65,8.94Z"/><path class="cls-3" d="M8.23,9.76c0,2-2,3.46-4.11,3.46S0,11.6,0,9.74,2.38,5.26,4.19,2.4C5.86,5.3,8.23,7.82,8.23,9.76Z"/></g></g></svg>