<svg xmlns="http://www.w3.org/2000/svg" xmlns:xlink="http://www.w3.org/1999/xlink" viewBox="0 0 19.75 22.38"><defs><style>.cls-1{fill:url(#linear-gradient);}</style><linearGradient id="linear-gradient" x1="16.55" y1="-11.03" x2="5.72" y2="25.06" gradientUnits="userSpaceOnUse"><stop offset="0" stop-color="#5cedff"/><stop offset="1" stop-color="#0a96ff"/></linearGradient></defs><g id="图层_2" data-name="图层 2"><g id="Layer_1" data-name="Layer 1"><path class="cls-1" d="M19.08,15l-1.69-1L19,14a.67.67,0,0,0,0-1.34l-3.78.07-2.58-1.49L15.3,9.62l3.12.63a.68.68,0,0,0,.79-.53.66.66,0,0,0-.53-.78L17,8.61l2-1.18A1.35,1.35,0,1,0,17.73,5.1L16,6.08l.77-1.29a.67.67,0,0,0-.24-.91.66.66,0,0,0-.91.23l-2,3.33L11.23,8.86V5.56l2-2.85a.67.67,0,0,0-1.09-.78l-.93,1.33V1.35a1.35,1.35,0,1,0-2.7,0V3.27L7.61,2a.67.67,0,0,0-1.09.77l2,2.84V8.86l-3-1.72L4.4,4.2a.67.67,0,1,0-1.24.49L3.7,6.07,2,5.1A1.35,1.35,0,0,0,.68,7.43l1.7,1L.64,8.48a.67.67,0,0,0,0,1.33l3.86-.14,2.64,1.52L4.35,12.83.81,12.64A.67.67,0,1,0,.73,14l1.5.08L.68,15A1.35,1.35,0,0,0,2,17.28l1.76-1-.65,1.58a.67.67,0,1,0,1.23.51l1.31-3.18,2.85-1.65v3.81l-2,2.79a.66.66,0,0,0,.16.93.67.67,0,0,0,.93-.16l.88-1.26V21a1.35,1.35,0,0,0,2.7,0V19.55l1,1.37a.67.67,0,1,0,1.09-.77l-2.06-2.91V13.52L14,15.14l1.12,3a.66.66,0,0,0,.85.4.67.67,0,0,0,.4-.86l-.57-1.53,1.89,1.09A1.35,1.35,0,0,0,19.08,15Zm-9.33-2.1a1.75,1.75,0,1,1,1.74-1.75A1.74,1.74,0,0,1,9.75,12.85Z"/></g></g></svg>